<?xml version="1.0" encoding="utf-8"?>
<!-- Generator: Adobe Illustrator 13.0.0, SVG Export Plug-In . SVG Version: 6.00 Build 14948)  -->
<!DOCTYPE svg PUBLIC "-//W3C//DTD SVG 1.1//EN" "http://www.w3.org/Graphics/SVG/1.1/DTD/svg11.dtd">
<svg version="1.1" id="Layer_1" xmlns="http://www.w3.org/2000/svg" xmlns:xlink="http://www.w3.org/1999/xlink" x="0px" y="0px"
	 width="612.767px" height="559.533px" viewBox="0 0 612.767 559.533" enable-background="new 0 0 612.767 559.533"
	 xml:space="preserve">
<polyline stroke="#000000" points="394.632,17.59 398.652,12.275 403.579,7.789 409.246,4.283 415.459,1.877 422.01,0.654 
	428.673,0.654 435.224,1.877 441.438,4.283 447.105,7.789 452.032,12.275 456.051,17.59 606.838,260.721 609.818,266.696 
	611.648,273.118 612.265,279.767 611.648,286.415 609.818,292.837 606.838,298.813 456.051,541.943 452.032,547.258 
	447.105,551.744 441.438,555.25 435.224,557.656 428.673,558.88 422.01,558.88 415.459,557.656 409.246,555.25 403.579,551.744 
	398.652,547.258 394.632,541.943 306.382,399.647 243.846,298.813 240.866,292.837 239.036,286.415 238.419,279.767 
	239.036,273.118 240.866,266.696 243.846,260.721 394.632,17.59 "/>
<g id="CIRCLE">
	<path stroke="#000000" d="M125.427,279.767c0-34.498-27.966-62.463-62.464-62.463c-34.498,0-62.463,27.966-62.463,62.463
		c0,34.498,27.966,62.464,62.463,62.464C97.461,342.23,125.427,314.265,125.427,279.767L125.427,279.767L125.427,279.767z"/>
</g>
<g id="CIRCLE_1_">
	<path stroke="#000000" d="M249.886,62.963c0-34.498-27.966-62.463-62.463-62.463s-62.464,27.966-62.464,62.463
		s27.966,62.464,62.464,62.464S249.886,97.461,249.886,62.963L249.886,62.963L249.886,62.963z"/>
</g>
<g id="CIRCLE_2_">
	<path stroke="#000000" d="M249.886,496.569c0-34.497-27.966-62.463-62.463-62.463s-62.464,27.966-62.464,62.463
		c0,34.498,27.966,62.464,62.464,62.464S249.886,531.067,249.886,496.569L249.886,496.569L249.886,496.569z"/>
</g>
</svg>
